<svg xmlns="http://www.w3.org/2000/svg" width="25" height="24" fill="none"><path fill="#091F3E" fill-rule="evenodd" d="M17.352 3.644h.81a2.703 2.703 0 0 1 2.7 2.7v10.35a2.61 2.61 0 0 1-.77 1.858l-1.678 1.678c-.49.49-1.166.77-1.859.77H6.201A2.704 2.704 0 0 1 3.5 18.299V6.344c0-1.489 1.212-2.7 2.701-2.7h.81v-.1a.544.544 0 0 1 1.087 0v.1h3.54v-.1a.544.544 0 0 1 1.087 0v.1h3.54v-.1a.544.544 0 0 1 1.087 0v.1Zm-12.765 2.7V18.3c0 .89.724 1.614 1.614 1.613h9.258v-2.438c0-1.037.845-1.881 1.882-1.881h2.433V6.344c0-.889-.723-1.613-1.613-1.613h-.81v.1a.544.544 0 0 1-1.087 0v-.1h-3.54v.1a.544.544 0 0 1-1.087 0v-.1h-3.54v.1a.544.544 0 0 1-1.087 0v-.1h-.809c-.89 0-1.614.723-1.614 1.613Zm13.058 13.117 1.678-1.678c.292-.292.451-.678.45-1.09v-.012h-2.432a.795.795 0 0 0-.795.794v2.438h.01c.405 0 .802-.165 1.089-.452Zm.521-10.683c0 .3-.243.543-.543.543H6.739a.544.544 0 0 1 0-1.087h10.884c.3 0 .543.243.543.544Z" clip-rule="evenodd"></path></svg>