<svg xmlns="http://www.w3.org/2000/svg" width="25" height="24" fill="none"><path fill="#091F3E" d="M12.5 4c4.815 0 8.753 3.973 8.753 8.832v1.991l.025.018a.445.445 0 0 1 .222.386v2.59h-.002c0 .139-.065.276-.188.363l-1.414 1a1.207 1.207 0 0 1-1.191 1.057 1.977 1.977 0 0 1-1.964-1.981v-3.469c0-1.09.883-1.98 1.964-1.98.602 0 1.114.454 1.19 1.056l.476.336v-1.367c0-4.367-3.543-7.942-7.871-7.942s-7.87 3.575-7.87 7.942v1.367l.474-.336a1.208 1.208 0 0 1 1.191-1.057c1.081 0 1.964.89 1.964 1.982v3.468c0 1.09-.883 1.981-1.964 1.981a1.208 1.208 0 0 1-1.19-1.057l-1.415-1a.443.443 0 0 1-.188-.364L3.5 15.227c0-.165.09-.31.222-.386l.025-.018v-1.991C3.747 7.973 7.685 4 12.5 4ZM5.977 19.025c0 .176.144.322.318.322a1.09 1.09 0 0 0 1.082-1.091v-3.469a1.09 1.09 0 0 0-1.082-1.09.322.322 0 0 0-.318.321v5.007Zm-1.595-3.569v2.13l.712.505v-3.138l-.712.503Zm15.524-.503v3.138l.712-.504v-2.13l-.712-.504Zm-.883-.935a.322.322 0 0 0-.318-.321 1.09 1.09 0 0 0-1.081 1.09v3.469c0 .599.487 1.09 1.08 1.09a.322.322 0 0 0 .32-.32v-5.008Z"></path></svg>