<svg xmlns="http://www.w3.org/2000/svg" width="25" height="24" fill="none"><path fill="#091F3E" fill-rule="evenodd" d="M6.58 17.157h11.84a2.479 2.479 0 0 0 2.476-2.476V6.477A2.479 2.479 0 0 0 18.42 4H6.58a2.479 2.479 0 0 0-2.476 2.477v8.204a2.479 2.479 0 0 0 2.476 2.476ZM5.191 6.477a1.39 1.39 0 0 1 1.389-1.39h11.84a1.39 1.39 0 0 1 1.389 1.39v8.204a1.39 1.39 0 0 1-1.389 1.389H6.58a1.39 1.39 0 0 1-1.389-1.389V6.477Zm5.719 7.143a1.719 1.719 0 0 0 1.78-.122l2.146-1.518a1.72 1.72 0 0 0 0-2.804L12.69 7.66a1.709 1.709 0 0 0-1.781-.122c-.572.296-.928.88-.928 1.524v3.033c0 .644.356 1.229.929 1.525Zm.16-4.558a.62.62 0 0 1 .34-.559.624.624 0 0 1 .653.045l2.145 1.516c.17.12.266.307.266.514a.625.625 0 0 1-.266.515l-2.146 1.517a.62.62 0 0 1-.653.045.62.62 0 0 1-.34-.56V9.062Zm-7.026 9.989h16.912a.544.544 0 0 1 0 1.087H4.044a.544.544 0 0 1 0-1.088Z" clip-rule="evenodd"></path></svg>