<svg xmlns="http://www.w3.org/2000/svg" width="25" height="24" fill="none"><path fill="#091F3E" fill-rule="evenodd" d="m18.175 3.793 1.745 1.745c.512.512.793 1.192.793 1.916v10.76A2.789 2.789 0 0 1 17.928 21H7.285A2.788 2.788 0 0 1 4.5 18.215V5.785A2.789 2.789 0 0 1 7.285 3h8.975a2.69 2.69 0 0 1 1.915.793Zm.976 2.513-1.744-1.743a1.634 1.634 0 0 0-1.147-.476h-.032v2.555c0 .467.38.847.848.847h2.55v-.035c0-.433-.17-.84-.475-1.148ZM7.285 19.913h10.643a1.7 1.7 0 0 0 1.698-1.698V8.576h-2.55a1.937 1.937 0 0 1-1.935-1.934V4.087H7.285a1.7 1.7 0 0 0-1.698 1.698v12.43a1.7 1.7 0 0 0 1.698 1.698Zm1.056-5.204h3.694a.544.544 0 0 0 0-1.087H8.341a.544.544 0 0 0 0 1.087Zm8.532 2.031H8.34a.544.544 0 0 0 0 1.088h8.532a.544.544 0 0 0 0-1.088Z" clip-rule="evenodd"></path></svg>